<mxfile host="app.diagrams.net" modified="2024-05-13T11:23:32.100Z" agent="Mozilla/5.0 (X11; Linux x86_64) AppleWebKit/537.36 (KHTML, like Gecko) Chrome/124.0.0.0 Safari/537.36" etag="q5ySLYTYTXoU1aUJ7AzJ" version="24.4.0" type="github">
  <diagram name="Page-1" id="c7488fd3-1785-93aa-aadb-54a6760d102a">
    <mxGraphModel dx="1362" dy="759" grid="1" gridSize="10" guides="1" tooltips="1" connect="1" arrows="1" fold="1" page="1" pageScale="1" pageWidth="1100" pageHeight="850" background="none" math="0" shadow="0">
      <root>
        <mxCell id="0" />
        <mxCell id="1" parent="0" />
        <mxCell id="2b4e8129b02d487f-1" value="NAME RECTIFICATION ON ACCOUNT WITH VERIFIED PARCELS" style="swimlane;html=1;childLayout=stackLayout;horizontal=1;startSize=20;horizontalStack=0;rounded=0;shadow=0;labelBackgroundColor=none;strokeWidth=1;fontFamily=Verdana;fontSize=8;align=center;" parent="1" vertex="1">
          <mxGeometry x="70" y="80" width="1010" height="615" as="geometry" />
        </mxCell>
        <mxCell id="2b4e8129b02d487f-2" value="Applicant(s)- Proprietor" style="swimlane;html=1;startSize=20;horizontal=0;" parent="2b4e8129b02d487f-1" vertex="1">
          <mxGeometry y="20" width="1010" height="190" as="geometry" />
        </mxCell>
        <mxCell id="2b4e8129b02d487f-18" style="edgeStyle=orthogonalEdgeStyle;rounded=0;html=1;labelBackgroundColor=none;startArrow=none;startFill=0;startSize=5;endArrow=classicThin;endFill=1;endSize=5;jettySize=auto;orthogonalLoop=1;strokeWidth=1;fontFamily=Verdana;fontSize=8" parent="2b4e8129b02d487f-2" source="2b4e8129b02d487f-5" edge="1">
          <mxGeometry relative="1" as="geometry">
            <mxPoint x="120" y="75" as="targetPoint" />
          </mxGeometry>
        </mxCell>
        <mxCell id="2b4e8129b02d487f-5" value="" style="ellipse;whiteSpace=wrap;html=1;rounded=0;shadow=0;labelBackgroundColor=none;strokeWidth=1;fontFamily=Verdana;fontSize=8;align=center;" parent="2b4e8129b02d487f-2" vertex="1">
          <mxGeometry x="60" y="60" width="30" height="30" as="geometry" />
        </mxCell>
        <mxCell id="X0vCvpcDByL62yAAZkJj-3" value="&lt;h6&gt;&lt;span style=&quot;font-weight: normal;&quot;&gt;&lt;font face=&quot;Times New Roman&quot;&gt;-Ardhisasa ID&lt;br&gt;&lt;/font&gt;&lt;font face=&quot;vrdMzk03zgyeCwnh8cxA&quot;&gt;-Reference numbers of the verified parcels&lt;br&gt;&lt;/font&gt;&lt;font face=&quot;vrdMzk03zgyeCwnh8cxA&quot;&gt;-Parcel numbers&lt;/font&gt;&lt;/span&gt;&lt;/h6&gt;" style="shape=note;whiteSpace=wrap;html=1;backgroundOutline=1;darkOpacity=0.05;direction=south;" vertex="1" parent="2b4e8129b02d487f-2">
          <mxGeometry x="100" y="11" width="120" height="90" as="geometry" />
        </mxCell>
        <mxCell id="X0vCvpcDByL62yAAZkJj-12" value="&lt;h6&gt;&lt;font face=&quot;Times New Roman&quot;&gt;&lt;u&gt;Upload required documents&lt;/u&gt;&lt;/font&gt;&lt;/h6&gt;&lt;h6&gt;&lt;ul&gt;&lt;li&gt;&lt;font face=&quot;Times New Roman&quot;&gt;&lt;span style=&quot;font-weight: normal;&quot;&gt;National ID&lt;/span&gt;&lt;/font&gt;&lt;/li&gt;&lt;li&gt;&lt;font face=&quot;Times New Roman&quot;&gt;&lt;span style=&quot;font-weight: normal;&quot;&gt;Affidavit&lt;/span&gt;&lt;/font&gt;&lt;/li&gt;&lt;li&gt;&lt;font face=&quot;Times New Roman&quot;&gt;&lt;span style=&quot;font-weight: normal;&quot;&gt;copy(s) of title/lease&lt;/span&gt;&lt;/font&gt;&lt;/li&gt;&lt;/ul&gt;&lt;/h6&gt;&lt;div&gt;&lt;br&gt;&lt;/div&gt;" style="whiteSpace=wrap;html=1;aspect=fixed;" vertex="1" parent="2b4e8129b02d487f-2">
          <mxGeometry x="260" y="10" width="100" height="100" as="geometry" />
        </mxCell>
        <mxCell id="X0vCvpcDByL62yAAZkJj-13" value="" style="edgeStyle=none;orthogonalLoop=1;jettySize=auto;html=1;rounded=0;exitX=0.432;exitY=0.005;exitDx=0;exitDy=0;exitPerimeter=0;" edge="1" parent="2b4e8129b02d487f-2" source="X0vCvpcDByL62yAAZkJj-3">
          <mxGeometry width="100" relative="1" as="geometry">
            <mxPoint x="230" y="50" as="sourcePoint" />
            <mxPoint x="260" y="50" as="targetPoint" />
            <Array as="points" />
          </mxGeometry>
        </mxCell>
        <mxCell id="X0vCvpcDByL62yAAZkJj-16" value="&lt;font face=&quot;Times New Roman&quot;&gt;Input required data&lt;/font&gt;" style="text;html=1;align=center;verticalAlign=middle;resizable=0;points=[];autosize=1;strokeColor=none;fillColor=none;" vertex="1" parent="2b4e8129b02d487f-2">
          <mxGeometry x="50" y="100" width="110" height="30" as="geometry" />
        </mxCell>
        <mxCell id="X0vCvpcDByL62yAAZkJj-18" value="" style="edgeStyle=none;orthogonalLoop=1;jettySize=auto;html=1;rounded=0;entryX=0.881;entryY=-0.048;entryDx=0;entryDy=0;entryPerimeter=0;" edge="1" parent="2b4e8129b02d487f-2">
          <mxGeometry width="100" relative="1" as="geometry">
            <mxPoint x="160" y="120" as="sourcePoint" />
            <mxPoint x="159.99999999999997" y="100.00000000000006" as="targetPoint" />
            <Array as="points" />
          </mxGeometry>
        </mxCell>
        <mxCell id="X0vCvpcDByL62yAAZkJj-32" value="&lt;h6&gt;&lt;br&gt;&lt;/h6&gt;" style="text;html=1;align=center;verticalAlign=middle;resizable=0;points=[];autosize=1;strokeColor=none;fillColor=none;" vertex="1" parent="2b4e8129b02d487f-2">
          <mxGeometry x="330" y="130" width="20" height="60" as="geometry" />
        </mxCell>
        <mxCell id="X0vCvpcDByL62yAAZkJj-69" value="Outcome&lt;div&gt;The name on both the registrar and the Account will match the name on the National ID&lt;br&gt;&lt;div&gt;&lt;u&gt;&lt;br&gt;&lt;/u&gt;&lt;/div&gt;&lt;/div&gt;" style="rounded=0;whiteSpace=wrap;html=1;" vertex="1" parent="2b4e8129b02d487f-2">
          <mxGeometry x="750" y="40" width="170" height="65" as="geometry" />
        </mxCell>
        <mxCell id="2b4e8129b02d487f-3" value="SYSTEM" style="swimlane;html=1;startSize=20;horizontal=0;" parent="2b4e8129b02d487f-1" vertex="1">
          <mxGeometry y="210" width="1010" height="210" as="geometry" />
        </mxCell>
        <mxCell id="X0vCvpcDByL62yAAZkJj-49" value="" style="edgeStyle=orthogonalEdgeStyle;rounded=0;orthogonalLoop=1;jettySize=auto;html=1;" edge="1" parent="2b4e8129b02d487f-3" source="2b4e8129b02d487f-13" target="X0vCvpcDByL62yAAZkJj-46">
          <mxGeometry relative="1" as="geometry" />
        </mxCell>
        <mxCell id="X0vCvpcDByL62yAAZkJj-50" value="Yes" style="edgeLabel;html=1;align=center;verticalAlign=middle;resizable=0;points=[];" vertex="1" connectable="0" parent="X0vCvpcDByL62yAAZkJj-49">
          <mxGeometry x="-0.2429" y="1" relative="1" as="geometry">
            <mxPoint as="offset" />
          </mxGeometry>
        </mxCell>
        <mxCell id="2b4e8129b02d487f-13" value="Validates" style="strokeWidth=1;html=1;shape=mxgraph.flowchart.decision;whiteSpace=wrap;rounded=1;shadow=0;labelBackgroundColor=none;fontFamily=Verdana;fontSize=8;align=center;" parent="2b4e8129b02d487f-3" vertex="1">
          <mxGeometry x="290" y="30" width="50" height="57" as="geometry" />
        </mxCell>
        <mxCell id="X0vCvpcDByL62yAAZkJj-55" value="" style="edgeStyle=orthogonalEdgeStyle;rounded=0;orthogonalLoop=1;jettySize=auto;html=1;" edge="1" parent="2b4e8129b02d487f-3" source="X0vCvpcDByL62yAAZkJj-46" target="X0vCvpcDByL62yAAZkJj-54">
          <mxGeometry relative="1" as="geometry" />
        </mxCell>
        <mxCell id="X0vCvpcDByL62yAAZkJj-57" value="True" style="edgeLabel;html=1;align=center;verticalAlign=middle;resizable=0;points=[];" vertex="1" connectable="0" parent="X0vCvpcDByL62yAAZkJj-55">
          <mxGeometry x="-0.2679" relative="1" as="geometry">
            <mxPoint as="offset" />
          </mxGeometry>
        </mxCell>
        <mxCell id="X0vCvpcDByL62yAAZkJj-46" value="Account name&amp;nbsp;&lt;div&gt;&amp;amp; register do not match&lt;div&gt;with the National&lt;div&gt;&amp;nbsp;ID&lt;br&gt;&lt;/div&gt;&lt;/div&gt;&lt;/div&gt;" style="strokeWidth=1;html=1;shape=mxgraph.flowchart.decision;whiteSpace=wrap;rounded=1;shadow=0;labelBackgroundColor=none;fontFamily=Verdana;fontSize=8;align=center;" vertex="1" parent="2b4e8129b02d487f-3">
          <mxGeometry x="379" y="10" width="88" height="89" as="geometry" />
        </mxCell>
        <mxCell id="X0vCvpcDByL62yAAZkJj-54" value="System prompts the applicant to apply for rectification of register but proceeds with the application" style="whiteSpace=wrap;html=1;fontSize=8;fontFamily=Verdana;strokeWidth=1;rounded=1;shadow=0;labelBackgroundColor=none;" vertex="1" parent="2b4e8129b02d487f-3">
          <mxGeometry x="369" y="147" width="111" height="53" as="geometry" />
        </mxCell>
        <mxCell id="X0vCvpcDByL62yAAZkJj-58" value="To effect the name rectification update by either by-passing&amp;nbsp; &quot;Validation&quot; or &quot; eliminating Validation&quot;" style="whiteSpace=wrap;html=1;fontSize=8;fontFamily=Verdana;strokeWidth=1;rounded=1;shadow=0;labelBackgroundColor=none;" vertex="1" parent="2b4e8129b02d487f-3">
          <mxGeometry x="535" y="248" width="120" height="60" as="geometry" />
        </mxCell>
        <mxCell id="X0vCvpcDByL62yAAZkJj-42" value="&lt;span style=&quot;font-family: Verdana; font-size: 8px;&quot;&gt;Register&amp;nbsp; &amp;amp; National&lt;/span&gt;&lt;div style=&quot;font-family: Verdana; font-size: 8px;&quot;&gt;I.D matches but account name do not match&lt;/div&gt;" style="points=[[0.25,0,0],[0.5,0,0],[0.75,0,0],[1,0.25,0],[1,0.5,0],[1,0.75,0],[0.75,1,0],[0.5,1,0],[0.25,1,0],[0,0.75,0],[0,0.5,0],[0,0.25,0]];shape=mxgraph.bpmn.task;whiteSpace=wrap;rectStyle=rounded;size=10;html=1;container=1;expand=0;collapsible=0;taskMarker=abstract;" vertex="1" parent="2b4e8129b02d487f-3">
          <mxGeometry x="535" y="29.5" width="120" height="50" as="geometry" />
        </mxCell>
        <mxCell id="X0vCvpcDByL62yAAZkJj-59" value="" style="edgeStyle=orthogonalEdgeStyle;rounded=0;orthogonalLoop=1;jettySize=auto;html=1;exitX=0.5;exitY=1;exitDx=0;exitDy=0;exitPerimeter=0;" edge="1" parent="2b4e8129b02d487f-3" source="X0vCvpcDByL62yAAZkJj-42" target="X0vCvpcDByL62yAAZkJj-58">
          <mxGeometry relative="1" as="geometry">
            <mxPoint x="575" y="100" as="sourcePoint" />
          </mxGeometry>
        </mxCell>
        <mxCell id="2b4e8129b02d487f-4" value="ICT DEPARTMENT" style="swimlane;html=1;startSize=20;horizontal=0;" parent="2b4e8129b02d487f-1" vertex="1">
          <mxGeometry y="420" width="1010" height="150" as="geometry" />
        </mxCell>
        <mxCell id="X0vCvpcDByL62yAAZkJj-31" value="" style="endArrow=classic;html=1;rounded=0;entryX=0.5;entryY=0;entryDx=0;entryDy=0;entryPerimeter=0;" edge="1" parent="2b4e8129b02d487f-1" source="X0vCvpcDByL62yAAZkJj-12" target="2b4e8129b02d487f-13">
          <mxGeometry width="50" height="50" relative="1" as="geometry">
            <mxPoint x="280" y="290" as="sourcePoint" />
            <mxPoint x="330" y="240" as="targetPoint" />
          </mxGeometry>
        </mxCell>
        <mxCell id="X0vCvpcDByL62yAAZkJj-43" value="&lt;span style=&quot;font-family: &amp;quot;Times New Roman&amp;quot;; font-size: 8.04px; background-color: rgb(251, 251, 251);&quot;&gt;Applicant submits&lt;/span&gt;" style="edgeLabel;html=1;align=center;verticalAlign=middle;resizable=0;points=[];" vertex="1" connectable="0" parent="X0vCvpcDByL62yAAZkJj-31">
          <mxGeometry x="-0.2216" y="-1" relative="1" as="geometry">
            <mxPoint as="offset" />
          </mxGeometry>
        </mxCell>
        <mxCell id="X0vCvpcDByL62yAAZkJj-20" value="&lt;h6&gt;&lt;span style=&quot;font-weight: normal;&quot;&gt;&lt;font face=&quot;Times New Roman&quot;&gt;notifies applicant to recheck details&amp;nbsp;&lt;br&gt;provided and re-submits&lt;/font&gt;&lt;/span&gt;&lt;/h6&gt;" style="text;html=1;align=center;verticalAlign=middle;resizable=0;points=[];autosize=1;strokeColor=none;fillColor=none;" vertex="1" parent="1">
          <mxGeometry x="150" y="208" width="140" height="70" as="geometry" />
        </mxCell>
        <mxCell id="X0vCvpcDByL62yAAZkJj-26" value="" style="endArrow=none;html=1;rounded=0;entryX=0.571;entryY=0.6;entryDx=0;entryDy=0;entryPerimeter=0;" edge="1" parent="1" target="X0vCvpcDByL62yAAZkJj-20">
          <mxGeometry width="50" height="50" relative="1" as="geometry">
            <mxPoint x="230" y="350" as="sourcePoint" />
            <mxPoint x="230" y="320" as="targetPoint" />
            <Array as="points">
              <mxPoint x="230" y="340" />
            </Array>
          </mxGeometry>
        </mxCell>
        <mxCell id="X0vCvpcDByL62yAAZkJj-29" value="" style="endArrow=none;html=1;rounded=0;" edge="1" parent="1">
          <mxGeometry width="50" height="50" relative="1" as="geometry">
            <mxPoint x="230" y="350" as="sourcePoint" />
            <mxPoint x="360" y="350" as="targetPoint" />
          </mxGeometry>
        </mxCell>
        <mxCell id="X0vCvpcDByL62yAAZkJj-45" value="False" style="edgeLabel;html=1;align=center;verticalAlign=middle;resizable=0;points=[];" vertex="1" connectable="0" parent="X0vCvpcDByL62yAAZkJj-29">
          <mxGeometry x="-0.2703" y="-1" relative="1" as="geometry">
            <mxPoint y="-2" as="offset" />
          </mxGeometry>
        </mxCell>
        <mxCell id="X0vCvpcDByL62yAAZkJj-60" value="" style="endArrow=none;dashed=1;html=1;rounded=0;exitX=1;exitY=0.5;exitDx=0;exitDy=0;" edge="1" parent="1" source="X0vCvpcDByL62yAAZkJj-54">
          <mxGeometry width="50" height="50" relative="1" as="geometry">
            <mxPoint x="571" y="480" as="sourcePoint" />
            <mxPoint x="660" y="464" as="targetPoint" />
          </mxGeometry>
        </mxCell>
        <mxCell id="X0vCvpcDByL62yAAZkJj-61" value="" style="endArrow=classic;html=1;rounded=0;" edge="1" parent="1">
          <mxGeometry width="50" height="50" relative="1" as="geometry">
            <mxPoint x="660" y="464" as="sourcePoint" />
            <mxPoint x="665" y="464" as="targetPoint" />
          </mxGeometry>
        </mxCell>
        <mxCell id="X0vCvpcDByL62yAAZkJj-62" value="" style="endArrow=none;html=1;rounded=0;" edge="1" parent="1">
          <mxGeometry width="50" height="50" relative="1" as="geometry">
            <mxPoint x="730" y="560" as="sourcePoint" />
            <mxPoint x="920" y="560" as="targetPoint" />
          </mxGeometry>
        </mxCell>
        <mxCell id="X0vCvpcDByL62yAAZkJj-65" value="" style="endArrow=classic;html=1;rounded=0;" edge="1" parent="1">
          <mxGeometry width="50" height="50" relative="1" as="geometry">
            <mxPoint x="460" y="310" as="sourcePoint" />
            <mxPoint x="460" y="310" as="targetPoint" />
          </mxGeometry>
        </mxCell>
        <mxCell id="X0vCvpcDByL62yAAZkJj-66" value="" style="endArrow=classic;html=1;rounded=0;entryX=0.565;entryY=0.985;entryDx=0;entryDy=0;entryPerimeter=0;" edge="1" parent="1" target="X0vCvpcDByL62yAAZkJj-69">
          <mxGeometry width="50" height="50" relative="1" as="geometry">
            <mxPoint x="920" y="560" as="sourcePoint" />
            <mxPoint x="870" y="210" as="targetPoint" />
          </mxGeometry>
        </mxCell>
      </root>
    </mxGraphModel>
  </diagram>
</mxfile>
